{
.appVersion = "3310";
.formatVersion = 3;
DisplayStrings = (
"aI
HHOO
HHOOH",
"/.notdef"
);
customParameters = (
{
name = glyphOrder;
value = (
A,
B,
C,
D,
E,
F,
G,
H,
I,
J,
K,
L,
M,
N,
O,
P,
Q,
R,
S,
T,
U,
V,
W,
X,
Y,
Z,
J.ss01,
a,
b,
c,
d,
e,
f,
g,
h,
i,
j,
k,
l,
m,
n,
o,
p,
q,
r,
s,
t,
u,
v,
w,
x,
y,
z,
j.ss01,
zero,
one,
two,
three,
four,
five,
six,
seven,
eight,
nine,
space,
period,
comma,
colon,
semicolon,
ellipsis,
exclam,
question,
periodcentered,
bullet,
asterisk,
numbersign,
slash,
backslash,
hyphen,
softhyphen,
endash,
emdash,
underscore,
parenleft,
parenright,
braceleft,
braceright,
bracketleft,
bracketright,
quotesinglbase,
quotedblbase,
quotedblleft,
quotedblright,
quoteleft,
quoteright,
quotedbl,
quotesingle,
at,
ampersand,
copyright,
registered,
trademark,
degree,
bar,
dollar,
euro,
sterling,
plus,
minus,
multiply,
equal,
percent
);
},
{
name = "Use Typo Metrics";
value = 1;
}
);
date = "2025-04-15 10:57:34 +0000";
familyName = "BBH Sans Bartle";
featurePrefixes = (
{
code = "languagesystem DFLT dflt;";
name = Languagesystems;
}
);
features = (
{
automatic = 1;
code = "feature ss01;
";
tag = aalt;
},
{
automatic = 1;
code = "sub J by J.ss01;
sub j by j.ss01;
";
labels = (
{
language = dflt;
value = "alt J";
}
);
tag = ss01;
}
);
fontMaster = (
{
customParameters = (
{
name = typoAscender;
value = 950;
},
{
name = typoDescender;
value = -250;
},
{
name = typoLineGap;
value = 0;
},
{
name = winAscent;
value = 1016;
},
{
name = winDescent;
value = 216;
},
{
name = hheaAscender;
value = 950;
},
{
name = hheaDescender;
value = -250;
},
{
name = hheaLineGap;
value = 0;
}
);
id = "C18D3387-8030-4A68-97FB-3AF8A3E1D39D";
metricValues = (
{
over = 16;
pos = 800;
},
{
over = 16;
pos = 700;
},
{
over = 16;
pos = 500;
},
{
over = -16;
},
{
over = -16;
pos = -200;
},
{
}
);
name = Bartle;
stemValues = (
324,
230,
310,
222
);
}
);
glyphs = (
{
color = 0;
glyphname = A;
kernLeft = A;
kernRight = A;
lastChange = "2025-07-15 10:17:51 +0000";
layers = (
{
background = {
guides = (
{
angle = 90;
pos = (614,142);
}
);
shapes = (
{
closed = 1;
nodes = (
(327,0,l),
(523,341,l),
(610,511,l),
(630,511,l),
(713,341,l),
(901,0,l),
(1234,0,l),
(798,700,l),
(431,700,l),
(-6,0,l)
);
},
{
closed = 1;
nodes = (
(900,109,l),
(900,281,l),
(287,281,l),
(287,109,l)
);
}
);
};
guides = (
{
angle = 90;
pos = (620,142);
}
);
layerId = "C18D3387-8030-4A68-97FB-3AF8A3E1D39D";
shapes = (
{
closed = 1;
nodes = (
(327,0,l),
(523,341,l),
(610,511,l),
(630,511,l),
(713,341,l),
(901,0,l),
(1234,0,l),
(798,700,l),
(431,700,l),
(-6,0,l)
);
},
{
closed = 1;
nodes = (
(900,109,l),
(900,281,l),
(287,281,l),
(287,109,l)
);
}
);
width = 1228;
}
);
unicode = 65;
},
{
glyphname = B;
kernLeft = H;
kernRight = B;
lastChange = "2025-07-15 10:18:05 +0000";
layers = (
{
background = {
guides = (
{
angle = 90;
pos = (620,360);
}
);
shapes = (
{
closed = 1;
nodes = (
(1087,0,ls),
(1217,0,o),
(1298,72,o),
(1298,179,cs),
(1298,179,ls),
(1298,273,o),
(1234,332,o),
(1115,343,c),
(1115,363,l),
(1226,383,o),
(1276,437,o),
(1276,522,cs),
(1276,522,ls),
(1276,630,o),
(1199,700,o),
(1055,700,cs),
(58,700,l),
(58,0,l)
);
},
{
closed = 1;
nodes = (
(368,273,l),
(933,273,ls),
(957,273,o),
(974,258,o),
(974,233,cs),
(974,233,ls),
(974,209,o),
(958,193,o),
(933,193,cs),
(368,193,l)
);
},
{
closed = 1;
nodes = (
(368,507,l),
(917,507,ls),
(941,507,o),
(958,492,o),
(958,467,cs),
(958,467,ls),
(958,443,o),
(942,427,o),
(917,427,cs),
(368,427,l)
);
}
);
};
layerId = "C18D3387-8030-4A68-97FB-3AF8A3E1D39D";
shapes = (
{
closed = 1;
nodes = (
(1087,0,ls),
(1217,0,o),
(1298,72,o),
(1298,179,cs),
(1298,179,ls),
(1298,273,o),
(1234,332,o),
(1115,343,c),
(1115,363,l),
(1226,383,o),
(1276,437,o),
(1276,522,cs),
(1276,522,ls),
(1276,630,o),
(1199,700,o),
(1055,700,cs),
(58,700,l),
(58,0,l)
);
},
{
closed = 1;
nodes = (
(368,273,l),
(933,273,ls),
(957,273,o),
(974,258,o),
(974,233,cs),
(974,233,ls),
(974,209,o),
(958,193,o),
(933,193,cs),
(368,193,l)
);
},
{
closed = 1;
nodes = (
(368,507,l),
(917,507,ls),
(941,507,o),
(958,492,o),
(958,467,cs),
(958,467,ls),
(958,443,o),
(942,427,o),
(917,427,cs),
(368,427,l)
);
}
);
width = 1322;
}
);
unicode = 66;
},
{
glyphname = C;
kernLeft = O;
kernRight = C;
lastChange = "2025-06-30 10:04:55 +0000";
layers = (
{
background = {
guides = (
{
angle = 90;
pos = (1259,266);
}
);
shapes = (
{
closed = 1;
nodes = (
(952,-16,o),
(1163,74,o),
(1269,229,c),
(1269,229,l),
(958,321,l),
(958,321,l),
(905,252,o),
(804,214,o),
(649,214,cs),
(472,214,o),
(354,263,o),
(354,344,cs),
(354,356,ls),
(354,436,o),
(472,486,o),
(649,486,cs),
(804,486,o),
(905,448,o),
(958,379,c),
(958,379,l),
(1269,471,l),
(1269,471,l),
(1163,626,o),
(952,716,o),
(649,716,cs),
(272,716,o),
(30,577,o),
(30,356,cs),
(30,344,ls),
(30,122,o),
(272,-16,o),
(649,-16,cs)
);
}
);
};
guides = (
{
angle = 165.9638;
pos = (1255,266);
}
);
layerId = "C18D3387-8030-4A68-97FB-3AF8A3E1D39D";
shapes = (
{
closed = 1;
nodes = (
(948,-16,o),
(1159,74,o),
(1265,229,c),
(1265,229,l),
(954,321,l),
(954,321,l),
(901,252,o),
(800,214,o),
(645,214,cs),
(468,214,o),
(350,263,o),
(350,344,cs),
(350,356,ls),
(350,436,o),
(468,486,o),
(645,486,cs),
(800,486,o),
(901,448,o),
(954,379,c),
(954,379,l),
(1265,471,l),
(1265,471,l),
(1159,626,o),
(948,716,o),
(645,716,cs),
(268,716,o),
(26,577,o),
(26,356,cs),
(26,344,ls),
(26,122,o),
(268,-16,o),
(645,-16,cs)
);
}
);
width = 1267;
}
);
unicode = 67;
},
{
glyphname = D;
kernLeft = H;
kernRight = D;
lastChange = "2025-06-30 10:04:55 +0000";
layers = (
{
background = {
guides = (
{
pos = (398,356);
},
{
pos = (398,344);
}
);
shapes = (
{
closed = 1;
nodes = (
(859,0,ls),
(1109,0,o),
(1270,132,o),
(1270,344,cs),
(1270,356,ls),
(1270,568,o),
(1109,700,o),
(859,700,cs),
(30,700,l),
(30,0,l)
);
},
{
closed = 1;
nodes = (
(340,474,l),
(829,474,ls),
(899,474,o),
(946,429,o),
(946,356,cs),
(946,344,ls),
(946,271,o),
(899,226,o),
(829,226,cs),
(340,226,l)
);
}
);
};
guides = (
{
pos = (426,356);
},
{
pos = (426,344);
}
);
layerId = "C18D3387-8030-4A68-97FB-3AF8A3E1D39D";
shapes = (
{
closed = 1;
nodes = (
(887,0,ls),
(1137,0,o),
(1298,132,o),
(1298,344,cs),
(1298,356,ls),
(1298,568,o),
(1137,700,o),
(887,700,cs),
(58,700,l),
(58,0,l)
);
},
{
closed = 1;
nodes = (
(368,474,l),
(857,474,ls),
(927,474,o),
(974,429,o),
(974,356,cs),
(974,344,ls),
(974,271,o),
(927,226,o),
(857,226,cs),
(368,226,l)
);
}
);
width = 1327;
}
);
unicode = 68;
},
{
glyphname = E;
kernLeft = H;
kernRight = E;
lastChange = "2025-06-30 10:04:55 +0000";
layers = (
{
layerId = "C18D3387-8030-4A68-97FB-3AF8A3E1D39D";
shapes = (
{
closed = 1;
nodes = (
(368,0,l),
(368,700,l),
(58,700,l),
(58,0,l)
);
},
{
closed = 1;
nodes = (
(1298,0,l),
(1298,202,l),
(245,202,l),
(245,0,l)
);
},
{
closed = 1;
nodes = (
(1190,264,l),
(1190,436,l),
(222,436,l),
(222,264,l)
);
},
{
closed = 1;
nodes = (
(1298,498,l),
(1298,700,l),
(245,700,l),
(245,498,l)
);
}
);
width = 1337;
}
);
unicode = 69;
},
{
glyphname = F;
kernLeft = H;
kernRight = F;
lastChange = "2025-06-30 10:04:55 +0000";
layers = (
{
background = {
guides = (
{
angle = 90;
pos = (1280,-17);
}
);
shapes = (
{
closed = 1;
nodes = (
(340,0,l),
(340,174,l),
(1162,174,l),
(1162,386,l),
(340,386,l),
(340,468,l),
(1270,468,l),
(1270,700,l),
(30,700,l),
(30,0,l)
);
}
);
};
guides = (
{
angle = 2.0454;
pos = (1308,-17);
}
);
layerId = "C18D3387-8030-4A68-97FB-3AF8A3E1D39D";
shapes = (
{
closed = 1;
nodes = (
(368,0,l),
(368,174,l),
(1190,174,l),
(1190,386,l),
(368,386,l),
(368,468,l),
(1298,468,l),
(1298,700,l),
(58,700,l),
(58,0,l)
);
}
);
width = 1317;
}
);
unicode = 70;
},
{
glyphname = G;
kernLeft = O;
kernRight = G;
lastChange = "2025-06-30 10:04:55 +0000";
layers = (
{
background = {
guides = (
{
pos = (398,356);
},
{
pos = (398,344);
}
);
shapes = (
{
closed = 1;
nodes = (
(784,-16,o),
(951,46,o),
(1020,150,c),
(1039,150,l),
(1029,0,l),
(1269,0,l),
(1269,380,l),
(646,380,l),
(646,260,l),
(1022,260,l),
(1014,288,l),
(995,270,l),
(929,227,o),
(776,204,o),
(649,204,cs),
(454,204,o),
(335,257,o),
(335,344,cs),
(335,356,ls),
(335,443,o),
(454,496,o),
(649,496,cs),
(804,496,o),
(905,465,o),
(958,409,c),
(958,409,l),
(1269,501,l),
(1269,501,l),
(1163,637,o),
(952,716,o),
(649,716,cs),
(272,716,o),
(30,578,o),
(30,356,cs),
(30,344,ls),
(30,122,o),
(263,-16,o),
(578,-16,cs)
);
}
);
};
guides = (
{
angle = 180;
pos = (394,356);
},
{
angle = 180;
pos = (394,344);
}
);
layerId = "C18D3387-8030-4A68-97FB-3AF8A3E1D39D";
shapes = (
{
closed = 1;
nodes = (
(780,-16,o),
(947,46,o),
(1016,150,c),
(1035,150,l),
(1025,0,l),
(1265,0,l),
(1265,380,l),
(642,380,l),
(642,260,l),
(1018,260,l),
(1010,288,l),
(991,270,l),
(925,227,o),
(772,204,o),
(645,204,cs),
(450,204,o),
(331,257,o),
(331,344,cs),
(331,356,ls),
(331,443,o),
(450,496,o),
(645,496,cs),
(800,496,o),
(901,465,o),
(954,409,c),
(954,409,l),
(1265,501,l),
(1265,501,l),
(1159,637,o),
(948,716,o),
(645,716,cs),
(268,716,o),
(26,578,o),
(26,356,cs),
(26,344,ls),
(26,122,o),
(259,-16,o),
(574,-16,cs)
);
}
);
width = 1305;
}
);
unicode = 71;
},
{
glyphname = H;
kernLeft = H;
kernRight = H;
lastChange = "2025-07-15 10:18:25 +0000";
layers = (
{
background = {
guides = (
{
angle = 90;
pos = (678,19);
}
);
shapes = (
{
closed = 1;
nodes = (
(1298,0,l),
(1298,700,l),
(988,700,l),
(988,0,l)
);
},
{
closed = 1;
nodes = (
(368,0,l),
(368,700,l),
(58,700,l),
(58,0,l)
);
},
{
closed = 1;
nodes = (
(1161,249,l),
(1161,471,l),
(245,471,l),
(245,249,l)
);
}
);
};
layerId = "C18D3387-8030-4A68-97FB-3AF8A3E1D39D";
shapes = (
{
closed = 1;
nodes = (
(1298,0,l),
(1298,700,l),
(988,700,l),
(988,0,l)
);
},
{
closed = 1;
nodes = (
(368,0,l),
(368,700,l),
(58,700,l),
(58,0,l)
);
},
{
closed = 1;
nodes = (
(1161,249,l),
(1161,471,l),
(245,471,l),
(245,249,l)
);
}
);
width = 1356;
}
);
unicode = 72;
},
{
glyphname = I;
kernLeft = I;
kernRight = I;
lastChange = "2025-07-15 10:18:48 +0000";
layers = (
{
background = {
guides = (
{
angle = 90;
pos = (663,434);
}
);
shapes = (
{
closed = 1;
nodes = (
(818,0,l),
(818,700,l),
(508,700,l),
(508,0,l)
);
},
{
closed = 1;
nodes = (
(1283,468,l),
(1283,700,l),
(43,700,l),
(43,468,l)
);
},
{
closed = 1;
nodes = (
(1283,0,l),
(1283,232,l),
(43,232,l),
(43,0,l)
);
}
);
};
layerId = "C18D3387-8030-4A68-97FB-3AF8A3E1D39D";
shapes = (
{
closed = 1;
nodes = (
(818,0,l),
(818,700,l),
(508,700,l),
(508,0,l)
);
},
{
closed = 1;
nodes = (
(1283,468,l),
(1283,700,l),
(43,700,l),
(43,468,l)
);
},
{
closed = 1;
nodes = (
(1283,0,l),
(1283,232,l),
(43,232,l),
(43,0,l)
);
}
);
width = 1326;
}
);
unicode = 73;
},
{
glyphname = J;
kernLeft = J;
kernRight = J;
lastChange = "2025-07-02 09:13:56 +0000";
layers = (
{
layerId = "C18D3387-8030-4A68-97FB-3AF8A3E1D39D";
shapes = (
{
closed = 1;
nodes = (
(1219,468,l),
(1219,700,l),
(79,700,l),
(79,468,l)
);
},
{
pos = (3,0);
ref = J.ss01;
}
);
width = 1266;
}
);
unicode = 74;
},
{
glyphname = K;
kernLeft = H;
kernRight = K;
lastChange = "2025-06-30 10:04:55 +0000";
layers = (
{
background = {
shapes = (
{
closed = 1;
nodes = (
(567,290,l),
(593,303,l),
(1240,700,l),
(787,700,l),
(263,370,l),
(327,143,l)
);
},
{
closed = 1;
nodes = (
(340,0,l),
(340,700,l),
(30,700,l),
(30,0,l)
);
},
{
closed = 1;
nodes = (
(1270,0,l),
(677,465,l),
(387,370,l),
(843,0,l)
);
}
);
};
layerId = "C18D3387-8030-4A68-97FB-3AF8A3E1D39D";
shapes = (
{
closed = 1;
nodes = (
(595,290,l),
(621,303,l),
(1268,700,l),
(815,700,l),
(291,370,l),
(355,143,l)
);
},
{
closed = 1;
nodes = (
(368,0,l),
(368,700,l),
(58,700,l),
(58,0,l)
);
},
{
closed = 1;
nodes = (
(1298,0,l),
(705,465,l),
(415,370,l),
(871,0,l)
);
}
);
width = 1263;
}
);
unicode = 75;
},
{
glyphname = L;
kernLeft = H;
kernRight = L;
lastChange = "2025-06-30 10:04:55 +0000";
layers = (
{
background = {
shapes = (
{
closed = 1;
nodes = (
(1280,0,l),
(1280,232,l),
(350,232,l),
(350,700,l),
(40,700,l),
(40,0,l)
);
}
);
};
layerId = "C18D3387-8030-4A68-97FB-3AF8A3E1D39D";
shapes = (
{
closed = 1;
nodes = (
(1298,0,l),
(1298,232,l),
(368,232,l),
(368,700,l),
(58,700,l),
(58,0,l)
);
}
);
width = 1313;
}
);
unicode = 76;
},
{
glyphname = M;
kernLeft = H;
kernRight = H;
lastChange = "2025-06-30 10:04:55 +0000";
layers = (
{
background = {
guides = (
{
angle = 145.6067;
pos = (166,463);
},
{
angle = 295.3173;
pos = (714,215);
}
);
shapes = (
{
closed = 1;
nodes = (
(330,0,l),
(330,430,l),
(331,427,l),
(553,0,l),
(747,0,l),
(969,427,l),
(970,430,l),
(970,0,l),
(1270,0,l),
(1270,700,l),
(807,700,l),
(556,215,l),
(744,215,l),
(493,700,l),
(30,700,l),
(30,0,l)
);
}
);
};
guides = (
{
angle = 1.1908;
pos = (194,463);
},
{
angle = 358.1787;
pos = (742,215);
}
);
layerId = "C18D3387-8030-4A68-97FB-3AF8A3E1D39D";
shapes = (
{
closed = 1;
nodes = (
(358,0,l),
(358,430,l),
(359,427,l),
(581,0,l),
(775,0,l),
(997,427,l),
(998,430,l),
(998,0,l),
(1298,0,l),
(1298,700,l),
(835,700,l),
(584,215,l),
(772,215,l),
(521,700,l),
(58,700,l),
(58,0,l)
);
}
);
width = 1356;
}
);
unicode = 77;
},
{
glyphname = N;
kernLeft = H;
kernRight = H;
lastChange = "2025-06-30 10:04:55 +0000";
layers = (
{
background = {
shapes = (
{
closed = 1;
nodes = (
(1080,240,l),
(336,700,l),
(220,460,l),
(964,0,l)
);
},
{
closed = 1;
nodes = (
(340,0,l),
(340,659,l),
(336,700,l),
(30,700,l),
(30,0,l)
);
},
{
closed = 1;
nodes = (
(1270,0,l),
(1270,700,l),
(960,700,l),
(960,62,l),
(964,0,l)
);
}
);
};
layerId = "C18D3387-8030-4A68-97FB-3AF8A3E1D39D";
shapes = (
{
closed = 1;
nodes = (
(1108,240,l),
(364,700,l),
(248,460,l),
(992,0,l)
);
},
{
closed = 1;
nodes = (
(368,0,l),
(368,659,l),
(364,700,l),
(58,700,l),
(58,0,l)
);
},
{
closed = 1;
nodes = (
(1298,0,l),
(1298,700,l),
(988,700,l),
(988,62,l),
(992,0,l)
);
}
);
width = 1356;
}
);
unicode = 78;
},
{
glyphname = O;
kernLeft = O;
kernRight = O;
lastChange = "2025-07-15 10:19:01 +0000";
layers = (
{
background = {
shapes = (
{
closed = 1;
nodes = (
(1027,-16,o),
(1266,121,o),
(1266,344,cs),
(1266,356,ls),
(1266,579,o),
(1027,716,o),
(646,716,cs),
(265,716,o),
(26,579,o),
(26,356,cs),
(26,344,ls),
(26,121,o),
(265,-16,o),
(646,-16,cs)
);
},
{
closed = 1;
nodes = (
(464,214,o),
(350,263,o),
(350,344,cs),
(350,356,ls),
(350,437,o),
(464,486,o),
(646,486,cs),
(828,486,o),
(942,437,o),
(942,356,cs),
(942,344,ls),
(942,263,o),
(828,214,o),
(646,214,cs)
);
}
);
};
layerId = "C18D3387-8030-4A68-97FB-3AF8A3E1D39D";
shapes = (
{
closed = 1;
nodes = (
(1027,-16,o),
(1266,121,o),
(1266,344,cs),
(1266,356,ls),
(1266,579,o),
(1027,716,o),
(646,716,cs),
(265,716,o),
(26,579,o),
(26,356,cs),
(26,344,ls),
(26,121,o),
(265,-16,o),
(646,-16,cs)
);
},
{
closed = 1;
nodes = (
(464,214,o),
(350,263,o),
(350,344,cs),
(350,356,ls),
(350,437,o),
(464,486,o),
(646,486,cs),
(828,486,o),
(942,437,o),
(942,356,cs),
(942,344,ls),
(942,263,o),
(828,214,o),
(646,214,cs)
);
}
);
width = 1292;
}
);
unicode = 79;
},
{
glyphname = P;
kernLeft = H;
kernRight = P;
lastChange = "2025-06-30 10:04:55 +0000";
layers = (
{
background = {
shapes = (
{
closed = 1;
nodes = (
(979,189,ls),
(1175,189,o),
(1260,304,o),
(1260,464,cs),
(1260,464,ls),
(1260,622,o),
(1172,700,o),
(979,700,cs),
(140,700,l),
(140,487,l),
(895,487,ls),
(919,487,o),
(936,471,o),
(936,443,cs),
(936,443,ls),
(936,416,o),
(920,399,o),
(895,399,cs),
(259,399,l),
(259,189,l)
);
},
{
closed = 1;
nodes = (
(340,0,l),
(340,700,l),
(30,700,l),
(30,0,l)
);
}
);
};
layerId = "C18D3387-8030-4A68-97FB-3AF8A3E1D39D";
shapes = (
{
closed = 1;
nodes = (
(1007,189,ls),
(1203,189,o),
(1288,304,o),
(1288,464,cs),
(1288,464,ls),
(1288,622,o),
(1200,700,o),
(1007,700,cs),
(168,700,l),
(168,487,l),
(923,487,ls),
(947,487,o),
(964,471,o),
(964,443,cs),
(964,443,ls),
(964,416,o),
(948,399,o),
(923,399,cs),
(287,399,l),
(287,189,l)
);
},
{
closed = 1;
nodes = (
(368,0,l),
(368,700,l),
(58,700,l),
(58,0,l)
);
}
);
width = 1302;
}
);
unicode = 80;
},
{
glyphname = Q;
kernLeft = Q;
kernRight = Q;
lastChange = "2025-06-30 10:04:55 +0000";
layers = (
{
background = {
shapes = (
{
closed = 1;
nodes = (
(1269,0,l),
(1269,207,l),
(1035,207,l),
(1035,227,l),
(1188,238,o),
(1270,302,o),
(1270,403,cs),
(1270,404,ls),
(1270,570,o),
(1041,716,o),
(650,716,cs),
(269,716,o),
(30,582,o),
(30,364,cs),
(30,352,ls),
(30,134,o),
(271,0,o),
(649,0,cs)
);
},
{
closed = 1;
nodes = (
(468,230,o),
(354,276,o),
(354,352,cs),
(354,364,ls),
(354,440,o),
(468,486,o),
(650,486,cs),
(832,486,o),
(946,440,o),
(946,364,cs),
(946,352,ls),
(946,276,o),
(832,230,o),
(650,230,cs)
);
}
);
};
layerId = "C18D3387-8030-4A68-97FB-3AF8A3E1D39D";
shapes = (
{
closed = 1;
nodes = (
(1265,0,l),
(1265,207,l),
(1031,207,l),
(1031,227,l),
(1184,238,o),
(1266,302,o),
(1266,403,cs),
(1266,404,ls),
(1266,570,o),
(1037,716,o),
(646,716,cs),
(265,716,o),
(26,582,o),
(26,364,cs),
(26,352,ls),
(26,134,o),
(267,0,o),
(645,0,cs)
);
},
{
closed = 1;
nodes = (
(464,230,o),
(350,276,o),
(350,352,cs),
(350,364,ls),
(350,440,o),
(464,486,o),
(646,486,cs),
(828,486,o),
(942,440,o),
(942,364,cs),
(942,352,ls),
(942,276,o),
(828,230,o),
(646,230,cs)
);
}
);
width = 1292;
}
);
unicode = 81;
},
{
glyphname = R;
kernLeft = H;
kernRight = R;
lastChange = "2025-06-30 10:04:55 +0000";
layers = (
{
background = {
shapes = (
{
closed = 1;
nodes = (
(340,0,l),
(340,209,l),
(905,209,ls),
(930,209,o),
(946,193,o),
(946,169,cs),
(946,0,l),
(1270,0,l),
(1270,179,ls),
(1270,271,o),
(1208,332,o),
(1087,343,c),
(1087,363,l),
(1198,383,o),
(1248,437,o),
(1248,522,cs),
(1248,522,ls),
(1248,632,o),
(1169,700,o),
(1027,700,cs),
(30,700,l),
(30,0,l)
);
},
{
closed = 1;
nodes = (
(340,487,l),
(885,487,ls),
(908,487,o),
(926,472,o),
(926,443,cs),
(926,443,ls),
(926,416,o),
(910,399,o),
(885,399,cs),
(340,399,l)
);
}
);
};
layerId = "C18D3387-8030-4A68-97FB-3AF8A3E1D39D";
shapes = (
{
closed = 1;
nodes = (
(368,0,l),
(368,209,l),
(933,209,ls),
(958,209,o),
(974,193,o),
(974,169,cs),
(974,0,l),
(1298,0,l),
(1298,179,ls),
(1298,271,o),
(1236,332,o),
(1115,343,c),
(1115,363,l),
(1226,383,o),
(1276,437,o),
(1276,522,cs),
(1276,522,ls),
(1276,632,o),
(1197,700,o),
(1055,700,cs),
(58,700,l),
(58,0,l)
);
},
{
closed = 1;
nodes = (
(368,487,l),
(913,487,ls),
(936,487,o),
(954,472,o),
(954,443,cs),
(954,443,ls),
(954,416,o),
(938,399,o),
(913,399,cs),
(368,399,l)
);
}
);
width = 1330;
}
);
unicode = 82;
},
{
glyphname = S;
kernLeft = S;
kernRight = S;
lastChange = "2025-07-15 09:27:52 +0000";
layers = (
{
background = {
shapes = (
{
closed = 1;
nodes = (
(989,-16,o),
(1254,49,o),
(1254,234,cs),
(1254,444,o),
(910,464,o),
(649,470,cs),
(490,474,o),
(361,472,o),
(361,505,cs),
(361,527,o),
(418,540,o),
(528,540,cs),
(777,540,o),
(1048,496,o),
(1220,419,c),
(1094,321,l),
(1239,611,l),
(1091,667,o),
(815,716,o),
(565,716,cs),
(284,716,o),
(36,655,o),
(36,473,cs),
(36,257,o),
(381,237,o),
(643,231,cs),
(802,227,o),
(930,229,o),
(930,195,cs),
(930,169,o),
(858,159,o),
(720,159,cs),
(504,159,o),
(268,180,o),
(1,303,c),
(159,386,l),
(14,96,l),
(190,35,o),
(454,-16,o),
(698,-16,cs)
);
}
);
};
guides = (
{
angle = 180.0878;
pos = (643,231);
}
);
layerId = "C18D3387-8030-4A68-97FB-3AF8A3E1D39D";
shapes = (
{
closed = 1;
nodes = (
(989,-16,o),
(1254,49,o),
(1254,234,cs),
(1254,444,o),
(910,464,o),
(649,470,cs),
(490,474,o),
(361,472,o),
(361,505,cs),
(361,527,o),
(418,540,o),
(528,540,cs),
(744,540,o),
(976,507,o),
(1146,448,c),
(1239,611,l),
(1091,667,o),
(815,716,o),
(565,716,cs),
(284,716,o),
(36,655,o),
(36,473,cs),
(36,257,o),
(381,237,o),
(643,231,cs),
(802,227,o),
(930,229,o),
(930,195,cs),
(930,169,o),
(858,159,o),
(720,159,cs),
(533,159,o),
(331,175,o),
(107,259,c),
(14,96,l),
(190,35,o),
(454,-16,o),
(698,-16,cs)
);
}
);
width = 1275;
},
{
associatedMasterId = "C18D3387-8030-4A68-97FB-3AF8A3E1D39D";
background = {
shapes = (
{
closed = 1;
nodes = (
(989,-16,o),
(1254,47,o),
(1254,227,cs),
(1254,432,o),
(910,444,o),
(649,450,cs),
(490,454,o),
(361,452,o),
(361,485,cs),
(361,507,o),
(418,520,o),
(528,520,cs),
(777,520,o),
(1048,476,o),
(1220,399,c),
(1074,321,l),
(1311,738,l),
(1294,587,l),
(1170,652,o),
(850,716,o),
(565,716,cs),
(284,716,o),
(36,659,o),
(36,482,cs),
(36,271,o),
(381,257,o),
(643,251,cs),
(802,247,o),
(930,249,o),
(930,215,cs),
(930,189,o),
(858,179,o),
(720,179,cs),
(504,179,o),
(268,200,o),
(1,323,c),
(179,386,l),
(14,96,l),
(190,35,o),
(454,-16,o),
(698,-16,cs)
);
}
);
};
guides = (
{
angle = 180.0878;
pos = (643,231);
}
);
layerId = "BE9A90AC-DE49-43CD-AB7B-709898C5A450";
name = "15 Jul 25 at 10:24";
shapes = (
{
closed = 1;
nodes = (
(989,-16,o),
(1254,49,o),
(1254,234,cs),
(1254,444,o),
(910,464,o),
(649,470,cs),
(490,474,o),
(361,472,o),
(361,505,cs),
(361,527,o),
(418,540,o),
(528,540,cs),
(744,540,o),
(976,507,o),
(1146,448,c),
(1239,611,l),
(1091,667,o),
(815,716,o),
(565,716,cs),
(284,716,o),
(36,655,o),
(36,473,cs),
(36,257,o),
(381,237,o),
(643,231,cs),
(802,227,o),
(930,229,o),
(930,195,cs),
(930,169,o),
(858,159,o),
(720,159,cs),
(533,159,o),
(331,175,o),
(107,259,c),
(14,96,l),
(190,35,o),
(454,-16,o),
(698,-16,cs)
);
}
);
width = 1275;
}
);
unicode = 83;
},
{
glyphname = T;
kernLeft = T;
kernRight = T;
lastChange = "2025-06-30 10:04:55 +0000";
layers = (
{
layerId = "C18D3387-8030-4A68-97FB-3AF8A3E1D39D";
shapes = (
{
closed = 1;
nodes = (
(790,0,l),
(790,468,l),
(1255,468,l),
(1255,700,l),
(15,700,l),
(15,468,l),
(480,468,l),
(480,0,l)
);
}
);
width = 1270;
}
);
unicode = 84;
},
{
glyphname = U;
kernLeft = U;
kernRight = U;
lastChange = "2025-07-15 10:19:14 +0000";
layers = (
{
background = {
shapes = (
{
closed = 1;
nodes = (
(1080,-16,o),
(1285,116,o),
(1285,383,cs),
(1285,700,l),
(975,700,l),
(975,393,ls),
(975,273,o),
(872,214,o),
(665,214,cs),
(458,214,o),
(355,273,o),
(355,393,cs),
(355,700,l),
(45,700,l),
(45,383,ls),
(45,116,o),
(250,-16,o),
(665,-16,cs)
);
}
);
};
layerId = "C18D3387-8030-4A68-97FB-3AF8A3E1D39D";
shapes = (
{
closed = 1;
nodes = (
(1080,-16,o),
(1285,116,o),
(1285,383,cs),
(1285,700,l),
(975,700,l),
(975,393,ls),
(975,273,o),
(872,214,o),
(665,214,cs),
(458,214,o),
(355,273,o),
(355,393,cs),
(355,700,l),
(45,700,l),
(45,383,ls),
(45,116,o),
(250,-16,o),
(665,-16,cs)
);
}
);
width = 1330;
}
);
unicode = 85;
},
{
glyphname = V;
kernLeft = V;
kernRight = V;
lastChange = "2025-07-01 14:18:17 +0000";
layers = (
{
background = {
shapes = (
{
closed = 1;
nodes = (
(833,0,l),
(1270,700,l),
(923,700,l),
(512,0,l)
);
},
{
closed = 1;
nodes = (
(772,0,l),
(377,700,l),
(30,700,l),
(466,0,l)
);
}
);
};
layerId = "C18D3387-8030-4A68-97FB-3AF8A3E1D39D";
shapes = (
{
closed = 1;
nodes = (
(796,0,l),
(1233,700,l),
(886,700,l),
(475,0,l)
);
},
{
closed = 1;
nodes = (
(735,0,l),
(340,700,l),
(-7,700,l),
(429,0,l)
);
}
);
width = 1226;
}
);
unicode = 86;
},
{
glyphname = W;
kernLeft = W;
kernRight = W;
lastChange = "2025-07-01 15:35:47 +0000";
layers = (
{
background = {
shapes = (
{
closed = 1;
nodes = (
(793,0,l),
(1015,422,l),
(973,422,l),
(1195,0,l),
(1552,0,l),
(1949,700,l),
(1602,700,l),
(1343,211,l),
(1394,211,l),
(1146,700,l),
(843,700,l),
(584,211,l),
(635,211,l),
(387,700,l),
(40,700,l),
(436,0,l)
);
}
);
};
layerId = "C18D3387-8030-4A68-97FB-3AF8A3E1D39D";
shapes = (
{
closed = 1;
nodes = (
(749,0,l),
(971,422,l),
(929,422,l),
(1151,0,l),
(1508,0,l),
(1905,700,l),
(1558,700,l),
(1299,211,l),
(1350,211,l),
(1102,700,l),
(799,700,l),
(540,211,l),
(591,211,l),
(343,700,l),
(-4,700,l),
(392,0,l)
);
}
);
width = 1900;
}
);
unicode = 87;
},
{
glyphname = X;
kernLeft = X;
kernRight = X;
lastChange = "2025-06-30 10:04:55 +0000";
layers = (
{
background = {
shapes = (
{
closed = 1;
nodes = (
(427,0,l),
(649,201,l),
(870,0,l),
(1270,0,l),
(865,351,l),
(1270,700,l),
(873,700,l),
(651,499,l),
(430,700,l),
(30,700,l),
(435,349,l),
(30,0,l)
);
}
);
};
layerId = "C18D3387-8030-4A68-97FB-3AF8A3E1D39D";
shapes = (
{
closed = 1;
nodes = (
(381,0,l),
(603,201,l),
(824,0,l),
(1224,0,l),
(819,351,l),
(1224,700,l),
(827,700,l),
(605,499,l),
(384,700,l),
(-16,700,l),
(389,349,l),
(-16,0,l)
);
}
);
width = 1208;
}
);
unicode = 88;
},
{
glyphname = Y;
kernLeft = Y;
kernRight = Y;
lastChange = "2025-06-30 10:04:55 +0000";
layers = (
{
background = {
shapes = (
{
closed = 1;
nodes = (
(805,0,l),
(805,252,l),
(1270,700,l),
(883,700,l),
(650,469,l),
(417,700,l),
(30,700,l),
(495,252,l),
(495,0,l)
);
}
);
};
layerId = "C18D3387-8030-4A68-97FB-3AF8A3E1D39D";
shapes = (
{
closed = 1;
nodes = (
(771,0,l),
(771,252,l),
(1236,700,l),
(849,700,l),
(616,469,l),
(383,700,l),
(-4,700,l),
(461,252,l),
(461,0,l)
);
}
);
width = 1232;
}
);
unicode = 89;
},
{
glyphname = Z;
kernLeft = Z;
kernRight = Z;
lastChange = "2025-06-30 10:04:55 +0000";
layers = (
{
background = {
guides = (
{
angle = 204.1576;
pos = (1275,508);
},
{
angle = 90;
pos = (1275,604);
}
);
shapes = (
{
closed = 1;
nodes = (
(1275,0,l),
(1275,222,l),
(606,222,l),
(1255,508,l),
(1255,700,l),
(60,700,l),
(60,478,l),
(674,478,l),
(25,192,l),
(25,0,l)
);
}
);
};
guides = (
{
angle = 282.0788;
pos = (1276,508);
},
{
angle = 45;
pos = (1276,604);
}
);
layerId = "C18D3387-8030-4A68-97FB-3AF8A3E1D39D";
shapes = (
{
closed = 1;
nodes = (
(1276,0,l),
(1276,222,l),
(607,222,l),
(1256,508,l),
(1256,700,l),
(61,700,l),
(61,478,l),
(675,478,l),
(26,192,l),
(26,0,l)
);
}
);
width = 1308;
}
);
unicode = 90;
},
{
glyphname = J.ss01;
kernLeft = J.ss01;
kernRight = J;
lastChange = "2025-07-02 09:13:38 +0000";
layers = (
{
background = {
guides = (
{
angle = 90;
pos = (960,700);
},
{
pos = (1074,215);
}
);
shapes = (
{
closed = 1;
nodes = (
(1002,-16,o),
(1270,74,o),
(1270,346,cs),
(1270,700,l),
(960,700,l),
(960,403,ls),
(960,260,o),
(828,215,o),
(666,215,cs),
(484,215,o),
(265,268,o),
(158,321,c),
(158,321,l),
(40,113,l),
(40,113,l),
(210,34,o),
(463,-16,o),
(693,-16,cs)
);
}
);
};
guides = (
{
angle = 178.9391;
pos = (906,700);
},
{
angle = 180;
pos = (1020,215);
}
);
layerId = "C18D3387-8030-4A68-97FB-3AF8A3E1D39D";
shapes = (
{
closed = 1;
nodes = (
(948,-16,o),
(1216,74,o),
(1216,346,cs),
(1216,700,l),
(906,700,l),
(906,403,ls),
(906,260,o),
(774,215,o),
(612,215,cs),
(430,215,o),
(211,268,o),
(104,321,c),
(104,321,l),
(-14,113,l),
(-14,113,l),
(156,34,o),
(409,-16,o),
(639,-16,cs)
);
}
);
width = 1263;
}
);
},
{
glyphname = zero;
lastChange = "2025-07-15 10:19:37 +0000";
layers = (
{
background = {
shapes = (
{
closed = 1;
nodes = (
(1029,-16,o),
(1268,121,o),
(1268,344,cs),
(1268,356,ls),
(1268,579,o),
(1029,716,o),
(648,716,cs),
(267,716,o),
(28,579,o),
(28,356,cs),
(28,344,ls),
(28,121,o),
(267,-16,o),
(648,-16,cs)
);
},
{
closed = 1;
nodes = (
(466,214,o),
(352,263,o),
(352,344,cs),
(352,356,ls),
(352,437,o),
(466,486,o),
(648,486,cs),
(830,486,o),
(944,437,o),
(944,356,cs),
(944,344,ls),
(944,263,o),
(830,214,o),
(648,214,cs)
);
}
);
};
layerId = "C18D3387-8030-4A68-97FB-3AF8A3E1D39D";
shapes = (
{
closed = 1;
nodes = (
(1029,-16,o),
(1268,121,o),
(1268,344,cs),
(1268,356,ls),
(1268,579,o),
(1029,716,o),
(648,716,cs),
(267,716,o),
(28,579,o),
(28,356,cs),
(28,344,ls),
(28,121,o),
(267,-16,o),
(648,-16,cs)
);
},
{
closed = 1;
nodes = (
(466,214,o),
(352,263,o),
(352,344,cs),
(352,356,ls),
(352,437,o),
(466,486,o),
(648,486,cs),
(830,486,o),
(944,437,o),
(944,356,cs),
(944,344,ls),
(944,263,o),
(830,214,o),
(648,214,cs)
);
}
);
width = 1296;
}
);
unicode = 48;
},
{
glyphname = one;
lastChange = "2025-06-30 10:04:55 +0000";
layers = (
{
background = {
shapes = (
{
closed = 1;
nodes = (
(814,0,l),
(814,700,l),
(567,700,l),
(64,620,l),
(64,394,l),
(504,468,l),
(504,0,l)
);
},
{
closed = 1;
nodes = (
(1270,0,l),
(1270,222,l),
(30,222,l),
(30,0,l)
);
}
);
};
layerId = "C18D3387-8030-4A68-97FB-3AF8A3E1D39D";
shapes = (
{
closed = 1;
nodes = (
(817,0,l),
(817,700,l),
(570,700,l),
(67,620,l),
(67,394,l),
(507,468,l),
(507,0,l)
);
},
{
closed = 1;
nodes = (
(1273,0,l),
(1273,222,l),
(33,222,l),
(33,0,l)
);
}
);
width = 1288;
}
);
unicode = 49;
},
{
glyphname = two;
lastChange = "2025-07-15 09:31:18 +0000";
layers = (
{
background = {
shapes = (
{
closed = 1;
nodes = (
(1263,0,l),
(1273,208,l),
(634,214,l),
(628,180,l),
(695,190,ls),
(1116,253,o),
(1259,362,o),
(1259,479,cs),
(1259,649,o),
(959,715,o),
(661,715,cs),
(448,715,o),
(214,683,o),
(33,629,c),
(93,415,l),
(297,469,o),
(481,495,o),
(660,495,cs),
(797,495,o),
(935,484,o),
(935,433,cs),
(935,401,o),
(881,379,o),
(577,312,cs),
(33,192,l),
(33,0,l)
);
}
);
};
guides = (
{
angle = 341.5651;
pos = (33,96);
}
);
layerId = "C18D3387-8030-4A68-97FB-3AF8A3E1D39D";
shapes = (
{
closed = 1;
nodes = (
(1263,0,l),
(1273,208,l),
(780,208,l),
(801,213,ls),
(1120,289,o),
(1259,363,o),
(1259,479,cs),
(1259,649,o),
(959,715,o),
(661,715,cs),
(448,715,o),
(214,683,o),
(33,629,c),
(93,415,l),
(297,469,o),
(481,495,o),
(660,495,cs),
(797,495,o),
(935,484,o),
(935,433,cs),
(935,401,o),
(881,379,o),
(577,312,cs),
(33,192,l),
(33,0,l)
);
}
);
width = 1301;
},
{
associatedMasterId = "C18D3387-8030-4A68-97FB-3AF8A3E1D39D";
background = {
guides = (
{
angle = 270;
pos = (30,96);
}
);
shapes = (
{
closed = 1;
nodes = (
(1263,0,l),
(1273,208,l),
(783,208,l),
(801,213,ls),
(1117,301,o),
(1259,364,o),
(1259,479,cs),
(1259,649,o),
(959,715,o),
(661,715,cs),
(448,715,o),
(214,683,o),
(33,629,c),
(93,415,l),
(297,469,o),
(481,495,o),
(660,495,cs),
(797,495,o),
(935,484,o),
(935,433,cs),
(935,401,o),
(877,390,o),
(698,348,cs),
(33,192,l),
(33,0,l)
);
}
);
};
guides = (
{
angle = 341.5651;
pos = (33,96);
}
);
layerId = "283716E1-21B1-4B44-AF0B-31694DF61665";
name = "15 Jul 25 at 10:10";
shapes = (
{
closed = 1;
nodes = (
(1263,0,l),
(1273,208,l),
(803,208,l),
(802,196,l),
(830,203,ls),
(1105,272,o),
(1259,358,o),
(1259,479,cs),
(1259,649,o),
(959,715,o),
(661,715,cs),
(448,715,o),
(214,683,o),
(33,629,c),
(93,415,l),
(297,469,o),
(481,495,o),
(659,495,cs),
(797,495,o),
(935,482,o),
(935,431,cs),
(935,399,o),
(878,376,o),
(638,324,cs),
(33,192,l),
(33,0,l)
);
}
);
width = 1301;
},
{
associatedMasterId = "C18D3387-8030-4A68-97FB-3AF8A3E1D39D";
background = {
shapes = (
{
closed = 1;
nodes = (
(1263,0,l),
(1273,208,l),
(780,208,l),
(801,213,ls),
(1120,289,o),
(1259,363,o),
(1259,479,cs),
(1259,649,o),
(959,715,o),
(661,715,cs),
(448,715,o),
(214,683,o),
(33,629,c),
(132,275,l),
(-12,405,l),
(235,479,o),
(451,515,o),
(660,515,cs),
(797,515,o),
(935,504,o),
(935,450,cs),
(935,416,o),
(881,406,o),
(541,320,cs),
(33,192,l),
(33,0,l)
);
}
);
};
guides = (
{
angle = 341.5651;
pos = (33,96);
}
);
layerId = "3B4E64A0-1CB9-4F6B-961F-5D4292C170DC";
name = "15 Jul 25 at 10:30";
shapes = (
{
closed = 1;
nodes = (
(1263,0,l),
(1273,208,l),
(780,208,l),
(801,213,ls),
(1120,289,o),
(1259,363,o),
(1259,479,cs),
(1259,649,o),
(959,715,o),
(661,715,cs),
(448,715,o),
(214,683,o),
(33,629,c),
(93,415,l),
(297,469,o),
(481,495,o),
(660,495,cs),
(797,495,o),
(935,484,o),
(935,433,cs),
(935,401,o),
(881,379,o),
(577,312,cs),
(33,192,l),
(33,0,l)
);
}
);
width = 1301;
}
);
unicode = 50;
},
{
glyphname = three;
lastChange = "2025-07-15 09:40:07 +0000";
layers = (
{
background = {
shapes = (
{
closed = 1;
nodes = (
(959,-16,o),
(1252,60,o),
(1252,234,cs),
(1252,361,o),
(1093,452,o),
(859,448,c),
(1179,529,l),
(1179,700,l),
(91,700,l),
(81,492,l),
(664,492,l),
(314,410,l),
(340,309,l),
(424,323,o),
(530,330,o),
(631,330,cs),
(783,330,o),
(923,313,o),
(923,262,cs),
(923,211,o),
(784,204,o),
(644,204,cs),
(470,204,o),
(293,227,o),
(101,279,c),
(14,76,l),
(196,22,o),
(439,-16,o),
(652,-16,cs)
);
}
);
};
layerId = "C18D3387-8030-4A68-97FB-3AF8A3E1D39D";
shapes = (
{
closed = 1;
nodes = (
(959,-16,o),
(1252,60,o),
(1252,234,cs),
(1252,361,o),
(1093,452,o),
(859,448,c),
(1179,529,l),
(1179,700,l),
(91,700,l),
(81,492,l),
(664,492,l),
(314,410,l),
(340,309,l),
(424,323,o),
(530,330,o),
(631,330,cs),
(783,330,o),
(923,313,o),
(923,262,cs),
(923,211,o),
(784,204,o),
(644,204,cs),
(470,204,o),
(293,227,o),
(101,279,c),
(14,76,l),
(196,22,o),
(439,-16,o),
(652,-16,cs)
);
}
);
width = 1274;
}
);
unicode = 51;
},
{
glyphname = four;
lastChange = "2025-07-15 09:35:17 +0000";
layers = (
{
layerId = "C18D3387-8030-4A68-97FB-3AF8A3E1D39D";
shapes = (
{
closed = 1;
nodes = (
(736,700,l),
(369,700,l),
(21,272,l),
(277,150,l)
);
},
{
closed = 1;
nodes = (
(1261,110,l),
(1261,322,l),
(214,322,l),
(21,272,l),
(21,110,l)
);
},
{
closed = 1;
nodes = (
(1029,0,l),
(1029,549,l),
(719,470,l),
(719,0,l)
);
}
);
width = 1283;
}
);
unicode = 52;
},
{
glyphname = five;
lastChange = "2025-07-15 09:40:03 +0000";
layers = (
{
background = {
shapes = (
{
closed = 1;
nodes = (
(966,-16,o),
(1250,61,o),
(1250,233,cs),
(1250,402,o),
(973,454,o),
(695,454,cs),
(586,454,o),
(498,446,o),
(428,432,c),
(465,498,l),
(1195,498,l),
(1205,700,l),
(268,700,l),
(93,384,l),
(348,290,l),
(435,305,o),
(525,309,o),
(621,309,cs),
(783,309,o),
(921,289,o),
(921,252,cs),
(921,201,o),
(782,204,o),
(642,204,cs),
(468,204,o),
(291,227,o),
(99,279,c),
(13,79,l),
(196,23,o),
(443,-16,o),
(659,-16,cs)
);
}
);
};
guides = (
{
angle = 180;
pos = (782,204);
}
);
layerId = "C18D3387-8030-4A68-97FB-3AF8A3E1D39D";
shapes = (
{
closed = 1;
nodes = (
(966,-16,o),
(1250,61,o),
(1250,233,cs),
(1250,402,o),
(973,454,o),
(695,454,cs),
(586,454,o),
(498,446,o),
(428,432,c),
(465,498,l),
(1195,498,l),
(1205,700,l),
(268,700,l),
(93,384,l),
(348,290,l),
(435,305,o),
(525,309,o),
(621,309,cs),
(783,309,o),
(921,289,o),
(921,252,cs),
(921,201,o),
(782,204,o),
(642,204,cs),
(468,204,o),
(291,227,o),
(99,279,c),
(13,79,l),
(196,23,o),
(443,-16,o),
(659,-16,cs)
);
}
);
width = 1280;
}
);
unicode = 53;
},
{
glyphname = six;
lastChange = "2025-07-15 09:40:19 +0000";
layers = (
{
background = {
shapes = (
{
closed = 1;
nodes = (
(1016,-15,o),
(1269,80,o),
(1269,228,cs),
(1269,379,o),
(994,445,o),
(718,445,cs),
(560,445,o),
(451,424,o),
(355,380,c),
(375,470,o),
(538,506,o),
(718,506,cs),
(852,506,o),
(1011,486,o),
(1192,436,c),
(1255,645,l),
(1085,688,o),
(878,716,o),
(705,716,cs),
(361,716,o),
(29,599,o),
(29,352,cs),
(29,336,ls),
(29,110,o),
(279,-15,o),
(667,-15,cs)
);
},
{
closed = 1;
nodes = (
(476,172,o),
(353,198,o),
(353,234,cs),
(353,240,ls),
(353,276,o),
(476,302,o),
(651,302,cs),
(824,302,o),
(945,276,o),
(945,240,cs),
(945,234,ls),
(945,198,o),
(824,172,o),
(651,172,cs)
);
}
);
};
guides = (
{
angle = 135;
pos = (1252,392);
}
);
layerId = "C18D3387-8030-4A68-97FB-3AF8A3E1D39D";
shapes = (
{
closed = 1;
nodes = (
(1006,-15,o),
(1269,80,o),
(1269,228,cs),
(1269,379,o),
(994,445,o),
(718,445,cs),
(560,445,o),
(451,424,o),
(355,380,c),
(375,470,o),
(538,506,o),
(718,506,cs),
(852,506,o),
(1011,486,o),
(1192,436,c),
(1255,645,l),
(1085,688,o),
(878,716,o),
(705,716,cs),
(361,716,o),
(29,599,o),
(29,352,cs),
(29,336,ls),
(29,110,o),
(269,-15,o),
(657,-15,cs)
);
},
{
closed = 1;
nodes = (
(476,172,o),
(353,198,o),
(353,234,cs),
(353,240,ls),
(353,276,o),
(476,302,o),
(651,302,cs),
(824,302,o),
(945,276,o),
(945,240,cs),
(945,234,ls),
(945,198,o),
(824,172,o),
(651,172,cs)
);
}
);
width = 1293;
},
{
associatedMasterId = "C18D3387-8030-4A68-97FB-3AF8A3E1D39D";
background = {
shapes = (
{
closed = 1;
nodes = (
(1016,-15,o),
(1269,80,o),
(1269,228,cs),
(1269,379,o),
(994,445,o),
(718,445,cs),
(527,445,o),
(408,414,o),
(297,350,c),
(353,370,l),
(353,361,ls),
(353,465,o),
(526,506,o),
(718,506,cs),
(881,506,o),
(1079,477,o),
(1311,399,c),
(1156,314,l),
(1255,645,l),
(1085,688,o),
(878,716,o),
(705,716,cs),
(361,716,o),
(29,599,o),
(29,352,cs),
(29,336,ls),
(29,110,o),
(279,-15,o),
(667,-15,cs)
);
},
{
closed = 1;
nodes = (
(476,172,o),
(353,198,o),
(353,234,cs),
(353,240,ls),
(353,276,o),
(476,302,o),
(651,302,cs),
(824,302,o),
(945,276,o),
(945,240,cs),
(945,234,ls),
(945,198,o),
(824,172,o),
(651,172,cs)
);
}
);
};
guides = (
{
angle = 135;
pos = (1252,392);
}
);
layerId = "D2FA0B2D-1C97-485C-AC10-162C263B894C";
name = "15 Jul 25 at 10:21";
shapes = (
{
closed = 1;
nodes = (
(1016,-15,o),
(1269,88,o),
(1269,241,cs),
(1269,399,o),
(1004,465,o),
(728,465,cs),
(537,465,o),
(418,434,o),
(337,390,c),
(353,378,l),
(353,381,ls),
(353,485,o),
(526,526,o),
(718,526,cs),
(854,526,o),
(1014,506,o),
(1198,454,c),
(1255,645,l),
(1085,688,o),
(878,716,o),
(705,716,cs),
(361,716,o),
(29,599,o),
(29,352,cs),
(29,336,ls),
(29,110,o),
(279,-15,o),
(667,-15,cs)
);
},
{
closed = 1;
nodes = (
(476,172,o),
(353,198,o),
(353,234,cs),
(353,240,ls),
(353,276,o),
(476,302,o),
(651,302,cs),
(824,302,o),
(945,276,o),
(945,240,cs),
(945,234,ls),
(945,198,o),
(824,172,o),
(651,172,cs)
);
}
);
width = 1293;
},
{
associatedMasterId = "C18D3387-8030-4A68-97FB-3AF8A3E1D39D";
background = {
shapes = (
{
closed = 1;
nodes = (
(1016,-15,o),
(1269,80,o),
(1269,228,cs),
(1269,379,o),
(994,445,o),
(718,445,cs),
(560,445,o),
(451,424,o),
(355,380,c),
(375,470,o),
(538,506,o),
(718,506,cs),
(852,506,o),
(1011,486,o),
(1192,436,c),
(1255,645,l),
(1085,688,o),
(878,716,o),
(705,716,cs),
(361,716,o),
(29,599,o),
(29,352,cs),
(29,336,ls),
(29,110,o),
(279,-15,o),
(667,-15,cs)
);
},
{
closed = 1;
nodes = (
(476,172,o),
(353,198,o),
(353,234,cs),
(353,240,ls),
(353,276,o),
(476,302,o),
(651,302,cs),
(824,302,o),
(945,276,o),
(945,240,cs),
(945,234,ls),
(945,198,o),
(824,172,o),
(651,172,cs)
);
}
);
};
guides = (
{
angle = 135;
pos = (1252,392);
}
);
layerId = "EE1FCC4F-A412-4B79-A310-4166E713AC41";
name = "15 Jul 25 at 10:40";
shapes = (
{
closed = 1;
nodes = (
(1016,-15,o),
(1269,80,o),
(1269,228,cs),
(1269,379,o),
(994,445,o),
(718,445,cs),
(560,445,o),
(451,424,o),
(355,380,c),
(375,470,o),
(538,506,o),
(718,506,cs),
(852,506,o),
(1011,486,o),
(1192,436,c),
(1255,645,l),
(1085,688,o),
(878,716,o),
(705,716,cs),
(361,716,o),
(29,599,o),
(29,352,cs),
(29,336,ls),
(29,110,o),
(279,-15,o),
(667,-15,cs)
);
},
{
closed = 1;
nodes = (
(476,172,o),
(353,198,o),
(353,234,cs),
(353,240,ls),
(353,276,o),
(476,302,o),
(651,302,cs),
(824,302,o),
(945,276,o),
(945,240,cs),
(945,234,ls),
(945,198,o),
(824,172,o),
(651,172,cs)
);
}
);
width = 1293;
}
);
unicode = 54;
},
{
glyphname = seven;
lastChange = "2025-06-30 10:04:55 +0000";
layers = (
{
layerId = "C18D3387-8030-4A68-97FB-3AF8A3E1D39D";
shapes = (
{
closed = 1;
nodes = (
(627,0,l),
(662,185,o),
(906,412,o),
(1255,518,c),
(1059,570,l),
(529,463,o),
(306,242,o),
(257,0,c)
);
},
{
closed = 1;
nodes = (
(1015,488,l),
(1255,518,l),
(1255,700,l),
(25,700,l),
(15,488,l)
);
}
);
width = 1272;
}
);
unicode = 55;
},
{
glyphname = eight;
lastChange = "2025-06-30 10:04:55 +0000";
layers = (
{
guides = (
{
angle = 172.875;
pos = (938,190);
}
);
layerId = "C18D3387-8030-4A68-97FB-3AF8A3E1D39D";
shapes = (
{
closed = 1;
nodes = (
(1010,-16,o),
(1262,75,o),
(1262,207,cs),
(1262,272,o),
(1199,334,o),
(1062,367,c),
(1166,400,o),
(1215,457,o),
(1215,512,cs),
(1215,634,o),
(981,716,o),
(642,716,cs),
(303,716,o),
(69,634,o),
(69,512,cs),
(69,457,o),
(118,400,o),
(222,367,c),
(85,334,o),
(22,272,o),
(22,207,cs),
(22,75,o),
(274,-16,o),
(642,-16,cs)
);
},
{
closed = 1;
nodes = (
(467,152,o),
(346,180,o),
(346,219,cs),
(346,258,o),
(467,286,o),
(642,286,cs),
(817,286,o),
(938,258,o),
(938,219,cs),
(938,180,o),
(817,152,o),
(642,152,cs)
);
},
{
closed = 1;
nodes = (
(489,429,o),
(384,453,o),
(384,488,cs),
(384,523,o),
(489,548,o),
(642,548,cs),
(795,548,o),
(900,523,o),
(900,488,cs),
(900,453,o),
(795,429,o),
(642,429,cs)
);
}
);
width = 1284;
}
);
unicode = 56;
},
{
glyphname = period;
kernLeft = period;
kernRight = period;
lastChange = "2025-06-30 10:04:55 +0000";
layers = (
{
background = {
shapes = (
{
closed = 1;
nodes = (
(480,0,l),
(480,240,l),
(170,240,l),
(170,0,l)
);
}
);
};
layerId = "C18D3387-8030-4A68-97FB-3AF8A3E1D39D";
shapes = (
{
closed = 1;
nodes = (
(355,0,l),
(355,240,l),
(45,240,l),
(45,0,l)
);
}
);
width = 400;
}
);
unicode = 46;
},
{
glyphname = comma;
kernLeft = period;
kernRight = period;
lastChange = "2025-06-30 10:04:55 +0000";
layers = (
{
background = {
shapes = (
{
closed = 1;
nodes = (
(365,-170,l),
(480,-5,l),
(480,240,l),
(170,240,l),
(170,0,l),
(312,0,l),
(200,-170,l)
);
}
);
};
layerId = "C18D3387-8030-4A68-97FB-3AF8A3E1D39D";
shapes = (
{
closed = 1;
nodes = (
(240,-170,l),
(355,-5,l),
(355,240,l),
(45,240,l),
(45,0,l),
(187,0,l),
(75,-170,l)
);
}
);
width = 400;
}
);
unicode = 44;
},
{
glyphname = colon;
kernLeft = colon;
kernRight = colon;
lastChange = "2025-06-30 10:04:55 +0000";
layers = (
{
background = {
shapes = (
{
closed = 1;
nodes = (
(480,340,l),
(480,580,l),
(170,580,l),
(170,340,l)
);
},
{
closed = 1;
nodes = (
(480,0,l),
(480,240,l),
(170,240,l),
(170,0,l)
);
}
);
};
layerId = "C18D3387-8030-4A68-97FB-3AF8A3E1D39D";
shapes = (
{
closed = 1;
nodes = (
(367,340,l),
(367,580,l),
(57,580,l),
(57,340,l)
);
},
{
closed = 1;
nodes = (
(367,0,l),
(367,240,l),
(57,240,l),
(57,0,l)
);
}
);
width = 424;
}
);
unicode = 58;
},
{
glyphname = semicolon;
kernLeft = colon;
kernRight = colon;
lastChange = "2025-06-30 10:04:55 +0000";
layers = (
{
background = {
shapes = (
{
closed = 1;
nodes = (
(365,-170,l),
(480,-5,l),
(480,240,l),
(170,240,l),
(170,0,l),
(312,0,l),
(200,-170,l)
);
},
{
closed = 1;
nodes = (
(480,340,l),
(480,580,l),
(170,580,l),
(170,340,l)
);
}
);
};
layerId = "C18D3387-8030-4A68-97FB-3AF8A3E1D39D";
shapes = (
{
closed = 1;
nodes = (
(252,-170,l),
(367,-5,l),
(367,240,l),
(57,240,l),
(57,0,l),
(199,0,l),
(87,-170,l)
);
},
{
closed = 1;
nodes = (
(367,340,l),
(367,580,l),
(57,580,l),
(57,340,l)
);
}
);
width = 424;
}
);
unicode = 59;
},
{
glyphname = ellipsis;
kernLeft = period;
kernRight = period;
lastChange = "2025-06-30 10:04:55 +0000";
layers = (
{
layerId = "C18D3387-8030-4A68-97FB-3AF8A3E1D39D";
shapes = (
{
closed = 1;
nodes = (
(845,0,l),
(845,240,l),
(605,240,l),
(605,0,l)
);
},
{
closed = 1;
nodes = (
(285,0,l),
(285,240,l),
(45,240,l),
(45,0,l)
);
},
{
closed = 1;
nodes = (
(565,0,l),
(565,240,l),
(325,240,l),
(325,0,l)
);
}
);
width = 890;
}
);
unicode = 8230;
},
{
glyphname = exclam;
lastChange = "2025-06-30 10:04:55 +0000";
layers = (
{
layerId = "C18D3387-8030-4A68-97FB-3AF8A3E1D39D";
shapes = (
{
closed = 1;
nodes = (
(231,290,l),
(291,436,l),
(291,700,l),
(51,700,l),
(51,436,l),
(111,290,l)
);
},
{
closed = 1;
nodes = (
(291,0,l),
(291,240,l),
(51,240,l),
(51,0,l)
);
}
);
width = 342;
}
);
unicode = 33;
},
{
glyphname = question;
lastChange = "2025-06-30 10:04:55 +0000";
layers = (
{
background = {
shapes = (
{
closed = 1;
nodes = (
(763,291,l),
(763,344,l),
(1075,355,o),
(1270,405,o),
(1270,518,cs),
(1270,658,o),
(956,716,o),
(643,716,cs),
(401,716,o),
(192,684,o),
(26,642,c),
(93,456,l),
(279,504,o),
(449,526,o),
(644,526,cs),
(818,526,o),
(946,510,o),
(946,485,cs),
(946,458,o),
(804,446,o),
(591,446,cs),
(453,446,l),
(453,291,l)
);
},
{
closed = 1;
nodes = (
(763,0,l),
(763,240,l),
(453,240,l),
(453,0,l)
);
}
);
};
layerId = "C18D3387-8030-4A68-97FB-3AF8A3E1D39D";
shapes = (
{
closed = 1;
nodes = (
(748,291,l),
(748,344,l),
(1060,355,o),
(1255,405,o),
(1255,518,cs),
(1255,658,o),
(941,716,o),
(628,716,cs),
(386,716,o),
(177,684,o),
(11,642,c),
(78,456,l),
(264,504,o),
(434,526,o),
(629,526,cs),
(803,526,o),
(931,510,o),
(931,485,cs),
(931,458,o),
(789,446,o),
(576,446,cs),
(438,446,l),
(438,291,l)
);
},
{
closed = 1;
nodes = (
(748,0,l),
(748,240,l),
(438,240,l),
(438,0,l)
);
}
);
width = 1271;
}
);
unicode = 63;
},
{
glyphname = bullet;
lastChange = "2025-06-30 10:04:55 +0000";
layers = (
{
layerId = "C18D3387-8030-4A68-97FB-3AF8A3E1D39D";
shapes = (
{
closed = 1;
nodes = (
(322,140,o),
(407,225,o),
(407,331,cs),
(407,437,o),
(322,522,o),
(216,522,cs),
(110,522,o),
(25,437,o),
(25,331,cs),
(25,225,o),
(110,140,o),
(216,140,cs)
);
}
);
width = 432;
}
);
unicode = 8226;
},
{
glyphname = asterisk;
lastChange = "2025-06-30 10:04:55 +0000";
layers = (
{
layerId = "C18D3387-8030-4A68-97FB-3AF8A3E1D39D";
shapes = (
{
closed = 1;
nodes = (
(267,372,l),
(349,243,l),
(466,336,l),
(370,438,l),
(513,474,l),
(463,614,l),
(328,552,l),
(341,700,l),
(193,700,l),
(206,552,l),
(70,614,l),
(21,474,l),
(164,437,l),
(67,336,l),
(184,243,l)
);
}
);
width = 534;
}
);
unicode = 42;
},
{
glyphname = numbersign;
lastChange = "2025-06-30 10:04:55 +0000";
layers = (
{
layerId = "C18D3387-8030-4A68-97FB-3AF8A3E1D39D";
shapes = (
{
closed = 1;
nodes = (
(731,0,l),
(863,700,l),
(659,700,l),
(527,0,l)
);
},
{
closed = 1;
nodes = (
(333,0,l),
(465,700,l),
(261,700,l),
(129,0,l)
);
},
{
closed = 1;
nodes = (
(928,130,l),
(928,300,l),
(24,300,l),
(24,130,l)
);
},
{
closed = 1;
nodes = (
(968,400,l),
(968,570,l),
(64,570,l),
(64,400,l)
);
}
);
width = 992;
}
);
unicode = 35;
},
{
glyphname = slash;
lastChange = "2025-06-30 10:04:55 +0000";
layers = (
{
layerId = "C18D3387-8030-4A68-97FB-3AF8A3E1D39D";
shapes = (
{
closed = 1;
nodes = (
(211,0,l),
(412,700,l),
(214,700,l),
(13,0,l)
);
}
);
width = 425;
}
);
unicode = 47;
},
{
glyphname = hyphen;
kernLeft = hyphen;
kernRight = hyphen;
lastChange = "2025-06-30 10:04:55 +0000";
layers = (
{
layerId = "C18D3387-8030-4A68-97FB-3AF8A3E1D39D";
shapes = (
{
closed = 1;
nodes = (
(466,189,l),
(466,381,l),
(46,381,l),
(46,189,l)
);
}
);
width = 512;
}
);
unicode = 45;
},
{
glyphname = endash;
kernLeft = hyphen;
kernRight = hyphen;
lastChange = "2025-06-30 10:04:55 +0000";
layers = (
{
layerId = "C18D3387-8030-4A68-97FB-3AF8A3E1D39D";
shapes = (
{
closed = 1;
nodes = (
(746,189,l),
(746,381,l),
(46,381,l),
(46,189,l)
);
}
);
width = 792;
}
);
unicode = 8211;
},
{
glyphname = emdash;
kernLeft = hyphen;
kernRight = hyphen;
lastChange = "2025-06-30 10:04:55 +0000";
layers = (
{
layerId = "C18D3387-8030-4A68-97FB-3AF8A3E1D39D";
shapes = (
{
closed = 1;
nodes = (
(1106,189,l),
(1106,381,l),
(46,381,l),
(46,189,l)
);
}
);
width = 1152;
}
);
unicode = 8212;
},
{
glyphname = underscore;
lastChange = "2025-06-30 10:04:55 +0000";
layers = (
{
layerId = "C18D3387-8030-4A68-97FB-3AF8A3E1D39D";
shapes = (
{
closed = 1;
nodes = (
(1102,-201,l),
(1102,-28,l),
(22,-28,l),
(22,-201,l)
);
}
);
width = 1124;
}
);
unicode = 95;
},
{
glyphname = parenleft;
lastChange = "2025-06-30 10:04:55 +0000";
layers = (
{
layerId = "C18D3387-8030-4A68-97FB-3AF8A3E1D39D";
shapes = (
{
closed = 1;
nodes = (
(382,-59,l),
(304,21,o),
(263,185,o),
(263,345,cs),
(263,508,o),
(305,668,o),
(382,752,c),
(319,780,l),
(123,683,o),
(26,514,o),
(26,345,cs),
(26,176,o),
(123,8,o),
(319,-90,c)
);
}
);
width = 396;
}
);
unicode = 40;
},
{
glyphname = braceleft;
lastChange = "2025-06-30 10:04:55 +0000";
layers = (
{
layerId = "C18D3387-8030-4A68-97FB-3AF8A3E1D39D";
shapes = (
{
closed = 1;
nodes = (
(387,-90,l),
(387,66,l),
(327,66,ls),
(298,66,o),
(287,76,o),
(291,100,cs),
(313,232,ls),
(326,310,o),
(285,337,o),
(216,345,c),
(285,353,o),
(326,380,o),
(313,458,cs),
(291,590,ls),
(287,614,o),
(298,624,o),
(327,624,cs),
(387,624,l),
(387,780,l),
(292,780,ls),
(112,780,o),
(52,725,o),
(77,580,cs),
(93,488,ls),
(104,425,o),
(78,408,o),
(26,408,c),
(26,282,l),
(78,282,o),
(104,265,o),
(93,202,cs),
(77,110,ls),
(52,-35,o),
(112,-90,o),
(292,-90,cs)
);
}
);
width = 423;
}
);
unicode = 123;
},
{
glyphname = bracketleft;
lastChange = "2025-06-30 10:04:55 +0000";
layers = (
{
layerId = "C18D3387-8030-4A68-97FB-3AF8A3E1D39D";
shapes = (
{
closed = 1;
nodes = (
(58,-90,l),
(411,-90,l),
(411,66,l),
(294,66,l),
(294,624,l),
(411,624,l),
(411,780,l),
(58,780,l)
);
}
);
width = 445;
}
);
unicode = 91;
},
{
glyphname = quotedblleft;
kernLeft = quoteleft;
kernRight = quoteleft;
lastChange = "2025-06-30 10:04:55 +0000";
layers = (
{
layerId = "C18D3387-8030-4A68-97FB-3AF8A3E1D39D";
shapes = (
{
closed = 1;
nodes = (
(706,290,l),
(706,530,l),
(564,530,l),
(676,700,l),
(511,700,l),
(396,535,l),
(396,290,l)
);
},
{
closed = 1;
nodes = (
(352,290,l),
(352,530,l),
(210,530,l),
(322,700,l),
(157,700,l),
(42,535,l),
(42,290,l)
);
}
);
width = 749;
}
);
unicode = 8220;
},
{
glyphname = quotedblright;
kernLeft = quoteright;
kernRight = quoteright;
lastChange = "2025-06-30 10:04:55 +0000";
layers = (
{
layerId = "C18D3387-8030-4A68-97FB-3AF8A3E1D39D";
shapes = (
{
closed = 1;
nodes = (
(589,290,l),
(704,455,l),
(704,700,l),
(394,700,l),
(394,460,l),
(536,460,l),
(424,290,l)
);
},
{
closed = 1;
nodes = (
(235,290,l),
(350,455,l),
(350,700,l),
(40,700,l),
(40,460,l),
(182,460,l),
(70,290,l)
);
}
);
width = 740;
}
);
unicode = 8221;
},
{
glyphname = quoteleft;
kernLeft = quoteleft;
kernRight = quoteleft;
lastChange = "2025-06-30 10:04:55 +0000";
layers = (
{
layerId = "C18D3387-8030-4A68-97FB-3AF8A3E1D39D";
shapes = (
{
closed = 1;
nodes = (
(352,290,l),
(352,530,l),
(210,530,l),
(322,700,l),
(157,700,l),
(42,535,l),
(42,290,l)
);
}
);
width = 395;
}
);
unicode = 8216;
},
{
glyphname = quoteright;
kernLeft = quoteright;
kernRight = quoteright;
lastChange = "2025-06-30 10:04:55 +0000";
layers = (
{
layerId = "C18D3387-8030-4A68-97FB-3AF8A3E1D39D";
shapes = (
{
closed = 1;
nodes = (
(235,290,l),
(350,455,l),
(350,700,l),
(40,700,l),
(40,460,l),
(182,460,l),
(70,290,l)
);
}
);
width = 386;
}
);
unicode = 8217;
},
{
glyphname = quotedbl;
kernLeft = quotesingle;
kernRight = quotesingle;
lastChange = "2025-06-30 10:04:55 +0000";
layers = (
{
layerId = "C18D3387-8030-4A68-97FB-3AF8A3E1D39D";
shapes = (
{
closed = 1;
nodes = (
(438,407,l),
(465,700,l),
(257,700,l),
(284,407,l)
);
},
{
closed = 1;
nodes = (
(214,407,l),
(241,700,l),
(33,700,l),
(60,407,l)
);
}
);
width = 498;
}
);
unicode = 34;
},
{
glyphname = quotesingle;
kernLeft = quotesingle;
kernRight = quotesingle;
lastChange = "2025-06-30 10:04:55 +0000";
layers = (
{
layerId = "C18D3387-8030-4A68-97FB-3AF8A3E1D39D";
shapes = (
{
closed = 1;
nodes = (
(214,407,l),
(241,700,l),
(33,700,l),
(60,407,l)
);
}
);
width = 274;
}
);
unicode = 39;
},
{
glyphname = at;
lastChange = "2025-06-30 10:04:55 +0000";
layers = (
{
layerId = "C18D3387-8030-4A68-97FB-3AF8A3E1D39D";
shapes = (
{
closed = 1;
nodes = (
(560,91,l),
(508,57,o),
(454,45,o),
(401,45,cs),
(244,45,o),
(132,152,o),
(132,319,cs),
(132,492,o),
(251,624,o),
(434,624,cs),
(578,624,o),
(693,540,o),
(693,391,cs),
(693,288,o),
(638,239,o),
(606,239,cs),
(590,239,o),
(581,250,o),
(585,270,cs),
(634,502,l),
(509,502,l),
(460,270,ls),
(443,190,o),
(489,139,o),
(569,139,cs),
(686,139,o),
(787,248,o),
(787,398,cs),
(787,579,o),
(647,716,o),
(434,716,cs),
(202,716,o),
(28,546,o),
(28,319,cs),
(28,98,o),
(181,-48,o),
(397,-48,cs),
(469,-48,o),
(545,-32,o),
(615,17,c)
);
},
{
closed = 1;
nodes = (
(487,139,o),
(531,270,o),
(531,367,cs),
(531,462,o),
(488,534,o),
(389,534,cs),
(266,534,o),
(206,421,o),
(206,318,cs),
(206,212,o),
(269,139,o),
(362,139,cs)
);
},
{
closed = 1;
nodes = (
(369,262,o),
(342,291,o),
(342,328,cs),
(342,370,o),
(372,403,o),
(411,403,cs),
(445,403,o),
(472,376,o),
(472,341,cs),
(472,297,o),
(442,262,o),
(403,262,cs)
);
}
);
width = 813;
}
);
unicode = 64;
},
{
glyphname = ampersand;
lastChange = "2025-06-30 10:04:55 +0000";
layers = (
{
layerId = "C18D3387-8030-4A68-97FB-3AF8A3E1D39D";
shapes = (
{
closed = 1;
nodes = (
(1262,0,l),
(592,498,l),
(944,498,l),
(954,700,l),
(182,700,l),
(182,530,l),
(870,0,l)
);
},
{
closed = 1;
nodes = (
(636,-16,o),
(774,14,o),
(890,97,c),
(747,226,l),
(684,188,o),
(626,164,o),
(527,164,cs),
(428,164,o),
(346,189,o),
(346,229,cs),
(346,276,o),
(445,298,o),
(518,287,c),
(424,400,l),
(212,430,o),
(22,346,o),
(22,211,cs),
(22,72,o),
(227,-16,o),
(481,-16,cs)
);
},
{
closed = 1;
nodes = (
(1094,174,o),
(1172,272,o),
(1206,386,c),
(935,427,l),
(903,334,o),
(862,290,o),
(810,253,c),
(969,107,l)
);
}
);
width = 1265;
}
);
unicode = 38;
},
{
glyphname = copyright;
lastChange = "2025-06-30 10:04:55 +0000";
layers = (
{
layerId = "C18D3387-8030-4A68-97FB-3AF8A3E1D39D";
shapes = (
{
closed = 1;
nodes = (
(683,-15,o),
(844,130,o),
(844,351,cs),
(844,571,o),
(683,716,o),
(436,716,cs),
(189,716,o),
(28,571,o),
(28,351,cs),
(28,130,o),
(189,-15,o),
(436,-15,cs)
);
},
{
closed = 1;
nodes = (
(266,89,o),
(153,194,o),
(153,351,cs),
(153,507,o),
(266,612,o),
(436,612,cs),
(606,612,o),
(719,507,o),
(719,351,cs),
(719,194,o),
(606,89,o),
(436,89,cs)
);
},
{
closed = 1;
nodes = (
(308,147,o),
(213,223,o),
(213,334,cs),
(213,366,ls),
(213,477,o),
(308,553,o),
(442,553,cs),
(557,553,o),
(647,493,o),
(660,402,c),
(505,371,l),
(502,402,o),
(477,426,o),
(442,426,cs),
(406,426,o),
(378,400,o),
(378,366,cs),
(378,334,ls),
(378,300,o),
(406,274,o),
(442,274,cs),
(477,274,o),
(502,298,o),
(505,329,c),
(660,298,l),
(647,207,o),
(557,147,o),
(442,147,cs)
);
}
);
width = 872;
}
);
unicode = 169;
},
{
glyphname = registered;
lastChange = "2025-06-30 10:04:55 +0000";
layers = (
{
layerId = "C18D3387-8030-4A68-97FB-3AF8A3E1D39D";
shapes = (
{
closed = 1;
nodes = (
(430,264,o),
(530,353,o),
(530,490,cs),
(530,626,o),
(430,716,o),
(277,716,cs),
(125,716,o),
(25,626,o),
(25,490,cs),
(25,353,o),
(125,264,o),
(277,264,cs)
);
},
{
closed = 1;
nodes = (
(172,328,o),
(102,393,o),
(102,490,cs),
(102,587,o),
(172,652,o),
(277,652,cs),
(383,652,o),
(452,587,o),
(452,490,cs),
(452,393,o),
(383,328,o),
(277,328,cs)
);
},
{
closed = 1;
nodes = (
(327,452,ls),
(369,452,o),
(396,480,o),
(396,525,cs),
(396,571,o),
(369,599,o),
(327,599,cs),
(206,599,l),
(206,533,l),
(290,533,ls),
(298,533,o),
(303,527,o),
(303,519,cs),
(303,511,o),
(298,505,o),
(290,505,cs),
(243,505,l),
(243,452,l)
);
},
{
closed = 1;
nodes = (
(261,380,l),
(261,599,l),
(172,599,l),
(172,380,l)
);
},
{
closed = 1;
nodes = (
(396,380,l),
(343,471,l),
(258,460,l),
(293,380,l)
);
}
);
width = 556;
}
);
unicode = 174;
},
{
glyphname = trademark;
lastChange = "2025-06-30 10:04:55 +0000";
layers = (
{
layerId = "C18D3387-8030-4A68-97FB-3AF8A3E1D39D";
shapes = (
{
closed = 1;
nodes = (
(283,331,l),
(283,700,l),
(136,700,l),
(136,331,l)
);
},
{
closed = 1;
nodes = (
(391,578,l),
(391,700,l),
(27,700,l),
(27,578,l)
);
},
{
closed = 1;
nodes = (
(566,331,l),
(566,548,l),
(559,546,l),
(634,331,l),
(743,331,l),
(820,546,l),
(811,548,l),
(811,331,l),
(954,331,l),
(954,700,l),
(751,700,l),
(659,445,l),
(719,445,l),
(628,700,l),
(424,700,l),
(424,331,l)
);
}
);
width = 1011;
}
);
unicode = 8482;
},
{
glyphname = degree;
lastChange = "2025-06-30 10:04:55 +0000";
layers = (
{
layerId = "C18D3387-8030-4A68-97FB-3AF8A3E1D39D";
shapes = (
{
closed = 1;
nodes = (
(267,594,o),
(291,572,o),
(291,544,cs),
(291,515,ls),
(291,487,o),
(267,465,o),
(235,465,cs),
(204,465,o),
(180,487,o),
(180,515,cs),
(180,544,ls),
(180,572,o),
(204,594,o),
(235,594,cs)
);
},
{
closed = 1;
nodes = (
(26,414,o),
(113,343,o),
(235,343,cs),
(358,343,o),
(445,414,o),
(445,514,cs),
(445,545,ls),
(445,645,o),
(358,716,o),
(235,716,cs),
(113,716,o),
(26,645,o),
(26,545,cs),
(26,514,ls)
);
}
);
width = 471;
}
);
unicode = 176;
},
{
glyphname = bar;
lastChange = "2025-06-30 10:04:55 +0000";
layers = (
{
layerId = "C18D3387-8030-4A68-97FB-3AF8A3E1D39D";
shapes = (
{
closed = 1;
nodes = (
(58,-115,l),
(268,-115,l),
(268,780,l),
(58,780,l)
);
}
);
width = 326;
}
);
unicode = 124;
},
{
glyphname = dollar;
lastChange = "2025-06-30 10:04:55 +0000";
layers = (
{
layerId = "C18D3387-8030-4A68-97FB-3AF8A3E1D39D";
shapes = (
{
closed = 1;
nodes = (
(626,0,o),
(760,95,o),
(760,245,cs),
(760,543,o),
(293,397,o),
(293,491,cs),
(293,514,o),
(323,527,o),
(370,527,cs),
(423,527,o),
(491,510,o),
(516,468,c),
(751,533,l),
(696,636,o),
(549,700,o),
(369,700,cs),
(164,700,o),
(35,610,o),
(35,467,cs),
(35,170,o),
(502,307,o),
(502,210,cs),
(502,186,o),
(475,173,o),
(418,173,cs),
(346,173,o),
(284,197,o),
(252,250,c),
(22,186,l),
(73,72,o),
(223,0,o),
(411,0,cs)
);
},
{
closed = 1;
nodes = (
(479,-100,l),
(479,41,l),
(283,41,l),
(283,-100,l)
);
},
{
closed = 1;
nodes = (
(479,659,l),
(479,800,l),
(283,800,l),
(283,659,l)
);
}
);
width = 786;
}
);
unicode = 36;
},
{
glyphname = euro;
lastChange = "2025-06-30 10:04:55 +0000";
layers = (
{
layerId = "C18D3387-8030-4A68-97FB-3AF8A3E1D39D";
shapes = (
{
closed = 1;
nodes = (
(676,-16,o),
(834,93,o),
(855,256,c),
(594,312,l),
(585,251,o),
(538,204,o),
(475,204,cs),
(413,204,o),
(368,251,o),
(368,310,cs),
(368,390,ls),
(368,449,o),
(413,496,o),
(475,496,cs),
(538,496,o),
(585,449,o),
(594,388,c),
(855,444,l),
(834,607,o),
(676,716,o),
(479,716,cs),
(255,716,o),
(101,577,o),
(101,380,cs),
(101,320,ls),
(101,123,o),
(255,-16,o),
(479,-16,cs)
);
},
{
closed = 1;
nodes = (
(494,255,l),
(494,335,l),
(31,335,l),
(31,255,l)
);
},
{
closed = 1;
nodes = (
(494,365,l),
(494,445,l),
(31,445,l),
(31,365,l)
);
}
);
width = 878;
}
);
unicode = 8364;
},
{
glyphname = sterling;
lastChange = "2025-07-15 09:39:22 +0000";
layers = (
{
background = {
shapes = (
{
closed = 1;
nodes = (
(428,507,o),
(442,519,o),
(470,519,cs),
(496.141,519,o),
(511.125,501.15,o),
(521.202,468.281,c),
(756.108,539.51,l),
(718.403,658.38,o),
(602.713,716,o),
(461,716,cs),
(296,716,o),
(185,637,o),
(162,480,cs),
(140,327,o),
(104,173,o),
(52,20,c),
(52,0,l),
(315,0,l),
(367,157,o),
(403,313,o),
(422,460,cs)
);
},
{
closed = 1;
nodes = (
(616,267,l),
(616,413,l),
(22,413,l),
(22,267,l)
);
},
{
closed = 1;
nodes = (
(721,0,l),
(731,197,l),
(260,197,l),
(260,0,l)
);
}
);
};
layerId = "C18D3387-8030-4A68-97FB-3AF8A3E1D39D";
shapes = (
{
closed = 1;
nodes = (
(428,507,o),
(442,519,o),
(470,519,cs),
(496.141,519,o),
(511.125,501.15,o),
(521.202,468.281,c),
(756.108,539.51,l),
(718.403,658.38,o),
(602.713,716,o),
(461,716,cs),
(296,716,o),
(185,637,o),
(162,480,cs),
(140,327,o),
(104,173,o),
(52,20,c),
(52,0,l),
(315,0,l),
(367,157,o),
(403,313,o),
(422,460,cs)
);
},
{
closed = 1;
nodes = (
(616,289,l),
(616,405,l),
(22,405,l),
(22,289,l)
);
},
{
closed = 1;
nodes = (
(721,0,l),
(731,202,l),
(260,202,l),
(260,0,l)
);
}
);
width = 775;
}
);
unicode = 163;
},
{
glyphname = plus;
lastChange = "2025-07-10 10:49:55 +0000";
layers = (
{
layerId = "C18D3387-8030-4A68-97FB-3AF8A3E1D39D";
shapes = (
{
closed = 1;
nodes = (
(57,201,l),
(493,201,l),
(493,353,l),
(57,353,l)
);
},
{
closed = 1;
nodes = (
(351,59,l),
(351,495,l),
(199,495,l),
(199,59,l)
);
}
);
width = 550;
}
);
unicode = 43;
},
{
glyphname = minus;
lastChange = "2025-07-10 10:49:49 +0000";
layers = (
{
layerId = "C18D3387-8030-4A68-97FB-3AF8A3E1D39D";
shapes = (
{
closed = 1;
nodes = (
(57,201,l),
(493,201,l),
(493,353,l),
(57,353,l)
);
}
);
width = 550;
}
);
unicode = 8722;
},
{
glyphname = multiply;
lastChange = "2025-07-10 10:49:45 +0000";
layers = (
{
layerId = "C18D3387-8030-4A68-97FB-3AF8A3E1D39D";
shapes = (
{
closed = 1;
nodes = (
(160,55,l),
(497,392,l),
(390,499,l),
(53,162,l)
);
},
{
closed = 1;
nodes = (
(497,162,l),
(160,499,l),
(53,392,l),
(390,55,l)
);
}
);
width = 550;
}
);
unicode = 215;
},
{
glyphname = equal;
lastChange = "2025-06-30 10:04:55 +0000";
layers = (
{
layerId = "C18D3387-8030-4A68-97FB-3AF8A3E1D39D";
shapes = (
{
closed = 1;
nodes = (
(57,316,l),
(493,316,l),
(493,468,l),
(57,468,l)
);
},
{
closed = 1;
nodes = (
(57,96,l),
(493,96,l),
(493,248,l),
(57,248,l)
);
}
);
width = 550;
}
);
unicode = 61;
},
{
glyphname = percent;
lastChange = "2025-06-30 10:04:55 +0000";
layers = (
{
layerId = "C18D3387-8030-4A68-97FB-3AF8A3E1D39D";
shapes = (
{
closed = 1;
nodes = (
(177,0,l),
(341,0,l),
(741,700,l),
(577,700,l)
);
},
{
closed = 1;
nodes = (
(225,588,o),
(242,569,o),
(242,542,cs),
(242,497,ls),
(242,470,o),
(225,451,o),
(199,451,cs),
(173,451,o),
(156,470,o),
(156,497,cs),
(156,542,ls),
(156,569,o),
(173,588,o),
(199,588,cs)
);
},
{
closed = 1;
nodes = (
(20,394,o),
(94,323,o),
(199,323,cs),
(304,323,o),
(378,394,o),
(378,494,cs),
(378,545,ls),
(378,645,o),
(304,716,o),
(199,716,cs),
(94,716,o),
(20,645,o),
(20,545,cs),
(20,494,ls)
);
},
{
closed = 1;
nodes = (
(745,249,o),
(762,230,o),
(762,203,cs),
(762,158,ls),
(762,131,o),
(745,112,o),
(719,112,cs),
(693,112,o),
(676,131,o),
(676,158,cs),
(676,203,ls),
(676,230,o),
(693,249,o),
(719,249,cs)
);
},
{
closed = 1;
nodes = (
(540,55,o),
(614,-16,o),
(719,-16,cs),
(824,-16,o),
(898,55,o),
(898,155,cs),
(898,206,ls),
(898,306,o),
(824,377,o),
(719,377,cs),
(614,377,o),
(540,306,o),
(540,206,cs),
(540,155,ls)
);
}
);
width = 918;
}
);
unicode = 37;
},
{
glyphname = .notdef;
lastChange = "2025-08-13 14:18:37 +0000";
layers = (
{
layerId = "C18D3387-8030-4A68-97FB-3AF8A3E1D39D";
shapes = (
{
attr = {
strokePos = 1;
};
closed = 1;
nodes = (
(460,710,l),
(460,-110,l),
(140,-110,l),
(140,710,l)
);
},
{
attr = {
strokePos = 1;
};
closed = 1;
nodes = (
(50,-200,l),
(550,-200,l),
(550,800,l),
(50,800,l)
);
}
);
width = 600;
}
);
},
{
glyphname = cent;
layers = (
{
layerId = "C18D3387-8030-4A68-97FB-3AF8A3E1D39D";
shapes = (
{
closed = 1;
nodes = (
(16,328,ls),
(16,186,o),
(144,84,o),
(327,84,cs),
(489,84,o),
(604,166,o),
(627,286,c),
(391,323,l),
(383,288,o),
(363,261,o),
(327,261,cs),
(289,261,o),
(260,289,o),
(260,324,cs),
(260,376,ls),
(260,411,o),
(289,439,o),
(327,439,cs),
(363,439,o),
(383,412,o),
(391,377,c),
(627,414,l),
(604,534,o),
(489,616,o),
(327,616,cs),
(144,616,o),
(16,514,o),
(16,372,cs)
);
},
{
closed = 1;
nodes = (
(224,517,l),
(420,517,l),
(420,700,l),
(224,700,l)
);
},
{
closed = 1;
nodes = (
(224,0,l),
(420,0,l),
(420,183,l),
(224,183,l)
);
}
);
width = 632;
}
);
unicode = 162;
},
{
glyphname = yen;
layers = (
{
layerId = "C18D3387-8030-4A68-97FB-3AF8A3E1D39D";
shapes = (
{
closed = 1;
nodes = (
(538,0,l),
(538,277,l),
(808,700,l),
(493,700,l),
(396,532,l),
(305,700,l),
(-12,700,l),
(258,277,l),
(258,0,l)
);
},
{
closed = 1;
nodes = (
(730,270,l),
(730,396,l),
(66,396,l),
(66,270,l)
);
},
{
closed = 1;
nodes = (
(730,104,l),
(730,230,l),
(66,230,l),
(66,104,l)
);
}
);
width = 796;
}
);
unicode = 165;
},
{
glyphname = divide;
layers = (
{
layerId = "C18D3387-8030-4A68-97FB-3AF8A3E1D39D";
shapes = (
{
closed = 1;
nodes = (
(32,201,l),
(468,201,l),
(468,353,l),
(32,353,l)
);
},
{
closed = 1;
nodes = (
(331,0,l),
(331,155,l),
(168,155,l),
(168,0,l)
);
},
{
closed = 1;
nodes = (
(331,399,l),
(331,554,l),
(168,554,l),
(168,399,l)
);
}
);
width = 500;
}
);
unicode = 247;
},
{
glyphname = greater;
layers = (
{
layerId = "C18D3387-8030-4A68-97FB-3AF8A3E1D39D";
shapes = (
{
closed = 1;
nodes = (
(261,271,l),
(32,196,l),
(32,49,l),
(467,201,l),
(467,341,l),
(32,493,l),
(32,346,l)
);
}
);
width = 499;
}
);
unicode = 62;
},
{
glyphname = less;
layers = (
{
layerId = "C18D3387-8030-4A68-97FB-3AF8A3E1D39D";
shapes = (
{
closed = 1;
nodes = (
(32,201,l),
(467,49,l),
(467,196,l),
(238,271,l),
(467,346,l),
(467,493,l),
(32,341,l)
);
}
);
width = 499;
}
);
unicode = 60;
},
{
glyphname = asciitilde;
layers = (
{
layerId = "C18D3387-8030-4A68-97FB-3AF8A3E1D39D";
shapes = (
{
closed = 1;
nodes = (
(297,320,o),
(262,386,o),
(180,386,cs),
(108,386,o),
(56,334,o),
(15,275,c),
(97,181,l),
(123,210,o),
(145,234,o),
(179,234,cs),
(231,234,o),
(266,168,o),
(348,168,cs),
(420,168,o),
(472,220,o),
(513,279,c),
(431,373,l),
(405,344,o),
(383,320,o),
(349,320,cs)
);
}
);
width = 528;
}
);
unicode = 126;
},
{
glyphname = asciicircum;
layers = (
{
layerId = "C18D3387-8030-4A68-97FB-3AF8A3E1D39D";
shapes = (
{
closed = 1;
nodes = (
(188,700,l),
(30,302,l),
(189,302,l),
(261,503,l),
(333,302,l),
(492,302,l),
(334,700,l)
);
}
);
width = 522;
}
);
unicode = 94;
},
{
glyphname = grave;
layers = (
{
layerId = "C18D3387-8030-4A68-97FB-3AF8A3E1D39D";
shapes = (
{
closed = 1;
nodes = (
(164,569,l),
(312,569,l),
(243,731,l),
(50,731,l)
);
}
